<svg width="120" height="120" viewBox="0 0 120 120" fill="none" xmlns="http://www.w3.org/2000/svg">
<path d="M35 90C28.7614 90 22.7783 87.6295 18.3669 83.4099C13.9556 79.1903 11.4773 73.4674 11.4773 67.5C11.4773 61.5326 13.9556 55.8097 18.3669 51.5901C22.7783 47.3705 28.7614 45 35 45C36.4734 38.4359 40.7838 32.6674 46.983 28.9636C50.0525 27.1296 53.4933 25.8577 57.1089 25.2206C60.7245 24.5834 64.4442 24.5934 68.0556 25.25C71.6669 25.9066 75.0992 27.197 78.1565 29.0474C81.2137 30.8978 83.8361 33.2721 85.8738 36.0346C87.9116 38.7972 89.3248 41.8939 90.0327 45.148C90.7407 48.4021 90.7296 51.7498 90 55H95C99.6413 55 104.093 56.8437 107.374 60.1256C110.656 63.4075 112.5 67.8587 112.5 72.5C112.5 77.1413 110.656 81.5925 107.374 84.8744C104.093 88.1563 99.6413 90 95 90H90" stroke="#96EC3F" stroke-width="6" stroke-linecap="round" stroke-linejoin="round"/>
<path d="M65 70L55 90H70L60 110" stroke="#96EC3F" stroke-width="6" stroke-linecap="round" stroke-linejoin="round"/>
</svg>
