<svg width="120" height="120" viewBox="0 0 120 120" fill="none" xmlns="http://www.w3.org/2000/svg">
<g clip-path="url(#clip0_117_26610)">
<path d="M10 100C11.1359 101.582 12.6399 102.865 14.3821 103.736C16.1244 104.607 18.0525 105.041 20 105C21.9475 105.041 23.8756 104.607 25.6179 103.736C27.3601 102.865 28.8641 101.582 30 100C31.1359 98.4175 32.6399 97.1354 34.3821 96.2642C36.1244 95.3931 38.0525 94.9592 40 95C41.9475 94.9592 43.8756 95.3931 45.6179 96.2642C47.3601 97.1354 48.8641 98.4175 50 100C51.1359 101.582 52.6399 102.865 54.3821 103.736C56.1244 104.607 58.0525 105.041 60 105C61.9475 105.041 63.8756 104.607 65.6179 103.736C67.3601 102.865 68.8641 101.582 70 100C71.1359 98.4175 72.6399 97.1354 74.3821 96.2642C76.1244 95.3931 78.0525 94.9592 80 95C81.9475 94.9592 83.8756 95.3931 85.6179 96.2642C87.3601 97.1354 88.8641 98.4175 90 100C91.1359 101.582 92.6399 102.865 94.3821 103.736C96.1244 104.607 98.0525 105.041 100 105C101.947 105.041 103.876 104.607 105.618 103.736C107.36 102.865 108.864 101.582 110 100" stroke="#96EC3F" stroke-width="6" stroke-linecap="round" stroke-linejoin="round"/>
<path d="M20 90L15 65H65M85 65H105L98.33 78.34" stroke="#96EC3F" stroke-width="6" stroke-linecap="round" stroke-linejoin="round"/>
<path d="M25 65V35H35M55 35H65L85 65" stroke="#96EC3F" stroke-width="6" stroke-linecap="round" stroke-linejoin="round"/>
<path d="M15 15L105 105" stroke="#96EC3F" stroke-width="6" stroke-linecap="round" stroke-linejoin="round"/>
</g>
<defs>
<clipPath id="clip0_117_26610">
<rect width="120" height="120" fill="white"/>
</clipPath>
</defs>
</svg>
