<svg width="90" height="90" viewBox="0 0 90 90" fill="none" xmlns="http://www.w3.org/2000/svg">
<g clip-path="url(#clip0_145_58)">
<path d="M80.625 71.25C78.7708 71.25 76.9582 71.7998 75.4165 72.83C73.8748 73.8601 72.6732 75.3243 71.9636 77.0373C71.2541 78.7504 71.0684 80.6354 71.4301 82.454C71.7919 84.2725 72.6848 85.943 73.9959 87.2541C75.307 88.5652 76.9775 89.4581 78.796 89.8199C80.6146 90.1816 82.4996 89.9959 84.2127 89.2864C85.9257 88.5768 87.3899 87.3752 88.42 85.8335C89.4502 84.2918 90 82.4792 90 80.625C90 79.3939 89.7575 78.1748 89.2864 77.0373C88.8152 75.8999 88.1247 74.8664 87.2541 73.9959C86.3836 73.1253 85.3501 72.4348 84.2127 71.9636C83.0752 71.4925 81.8561 71.25 80.625 71.25ZM80.625 86.25C79.5125 86.25 78.4249 85.9201 77.4999 85.302C76.5749 84.6839 75.8539 83.8054 75.4282 82.7776C75.0024 81.7498 74.891 80.6188 75.1081 79.5276C75.3251 78.4365 75.8609 77.4342 76.6475 76.6475C77.4342 75.8609 78.4365 75.3251 79.5276 75.1081C80.6188 74.891 81.7498 75.0024 82.7776 75.4282C83.8054 75.8539 84.6839 76.5749 85.302 77.4999C85.9201 78.4249 86.25 79.5125 86.25 80.625C86.25 82.1168 85.6574 83.5476 84.6025 84.6025C83.5476 85.6574 82.1168 86.25 80.625 86.25Z" fill="#96EC3F"/>
<path d="M90 31.875C90 29.4127 89.515 26.9745 88.5727 24.6997C87.6304 22.4248 86.2493 20.3578 84.5082 18.6167C82.7671 16.8756 80.7001 15.4945 78.4253 14.5523C76.1504 13.61 73.7123 13.125 71.25 13.125C23.9062 13.125 28.5937 13.425 29.4562 12.5812C29.631 12.4064 29.7697 12.1989 29.8643 11.9705C29.9589 11.742 30.0076 11.4972 30.0076 11.25C30.0076 11.0028 29.9589 10.7579 29.8643 10.5295C29.7697 10.3011 29.631 10.0936 29.4562 9.91875C29.2814 9.74392 29.0739 9.60525 28.8454 9.51064C28.617 9.41602 28.3722 9.36732 28.125 9.36732C27.8777 9.36732 27.6329 9.41602 27.4045 9.51064C27.1761 9.60525 26.9685 9.74392 26.7937 9.91875C23.3812 13.3312 22.0312 14.1 22.6312 15.6562C22.8375 16.2375 22.9312 16.2187 26.7937 20.0812C27.1468 20.4343 27.6257 20.6327 28.125 20.6327C28.6243 20.6327 29.1032 20.4343 29.4562 20.0812C29.8093 19.7282 30.0076 19.2493 30.0076 18.75C30.0076 18.2507 29.8093 17.7718 29.4562 17.4187C28.6125 16.575 23.7562 16.875 71.25 16.875C75.2282 16.875 79.0435 18.4553 81.8566 21.2684C84.6696 24.0814 86.25 27.8967 86.25 31.875C86.25 35.8532 84.6696 39.6686 81.8566 42.4816C79.0435 45.2946 75.2282 46.875 71.25 46.875C70.7527 46.875 70.2758 47.0725 69.9241 47.4242C69.5725 47.7758 69.375 48.2527 69.375 48.75C69.375 49.2473 69.5725 49.7242 69.9241 50.0758C70.2758 50.4275 70.7527 50.625 71.25 50.625C73.7123 50.625 76.1504 50.14 78.4253 49.1977C80.7001 48.2555 82.7671 46.8743 84.5082 45.1332C86.2493 43.3922 87.6304 41.3252 88.5727 39.0503C89.515 36.7755 90 34.3373 90 31.875Z" fill="#96EC3F"/>
<path d="M65.625 78.75H17.8125C14.0829 78.75 10.506 77.2684 7.86881 74.6312C5.23158 71.994 3.75 68.4171 3.75 64.6875C3.75 57.6187 9.075 50.625 18.75 50.625C19.2473 50.625 19.7242 50.4275 20.0758 50.0758C20.4275 49.7242 20.625 49.2473 20.625 48.75C20.625 48.2527 20.4275 47.7758 20.0758 47.4242C19.7242 47.0725 19.2473 46.875 18.75 46.875C6.8625 46.875 0 55.6875 0 64.6875C0.00496337 69.4101 1.88323 73.9379 5.22264 77.2774C8.56206 80.6168 13.0899 82.495 17.8125 82.5H65.625C66.1223 82.5 66.5992 82.3025 66.9508 81.9508C67.3025 81.5992 67.5 81.1223 67.5 80.625C67.5 80.1277 67.3025 79.6508 66.9508 79.2992C66.5992 78.9475 66.1223 78.75 65.625 78.75Z" fill="#96EC3F"/>
<path d="M9.375 31.875C19.3125 31.875 22.1437 22.7062 13.9688 19.575C16.2188 16.4062 18.75 12.2063 18.75 9.375C18.75 6.8886 17.7623 4.50403 16.0041 2.74587C14.246 0.98772 11.8614 0 9.375 0C6.8886 0 4.50403 0.98772 2.74587 2.74587C0.98772 4.50403 0 6.8886 0 9.375C0 12.2063 2.53125 16.4062 4.78125 19.575C-3.43125 22.725 -0.50625 31.875 9.375 31.875ZM9.375 3.75C10.8668 3.75 12.2976 4.34263 13.3525 5.39752C14.4074 6.45242 15 7.88316 15 9.375C15 11.3813 12.0562 15.9937 9.375 19.5C6.69375 15.9937 3.75 11.4 3.75 9.375C3.75 7.88316 4.34263 6.45242 5.39752 5.39752C6.45242 4.34263 7.88316 3.75 9.375 3.75ZM7.1625 22.7625C7.8375 23.6063 8.30625 24.375 9.375 24.375C10.4438 24.375 10.875 23.625 11.5875 22.7625C17.5312 24.1313 15 28.125 9.375 28.125C3.75 28.125 1.2 24.1313 7.1625 22.7625Z" fill="#96EC3F"/>
<path d="M11.25 9.375C11.25 8.87772 11.0525 8.40081 10.7008 8.04918C10.3492 7.69754 9.87228 7.5 9.375 7.5C8.87772 7.5 8.40081 7.69754 8.04918 8.04918C7.69754 8.40081 7.5 8.87772 7.5 9.375C7.5 9.87228 7.69754 10.3492 8.04918 10.7008C8.40081 11.0525 8.87772 11.25 9.375 11.25C9.87228 11.25 10.3492 11.0525 10.7008 10.7008C11.0525 10.3492 11.25 9.87228 11.25 9.375Z" fill="#96EC3F"/>
<path d="M45.8435 67.2938C65.6248 57.375 65.6248 57.8813 65.6248 56.25C65.6248 32.6438 66.056 32.8125 64.5935 32.0813C44.531 22.05 45.356 22.1063 44.156 22.7063C24.5998 32.475 24.3748 32.1 24.3748 33.75C24.3748 57.6188 23.9435 57.1875 25.406 57.9188C45.4685 67.95 44.6623 67.8938 45.8435 67.2938ZM28.1248 36.7875L43.1248 44.2875V62.5875L28.1248 55.0875V36.7875ZM46.8748 62.5875V44.2875L52.4998 41.475V45C52.4998 45.4973 52.6973 45.9742 53.049 46.3258C53.4006 46.6775 53.8775 46.875 54.3748 46.875C54.8721 46.875 55.349 46.6775 55.7006 46.3258C56.0522 45.9742 56.2498 45.4973 56.2498 45V39.6L61.8748 36.7875V55.0875L46.8748 62.5875ZM44.9998 26.475L59.5498 33.75L53.9248 36.525L40.0123 28.9313L44.9998 26.475ZM35.9998 30.975L49.9123 38.5688L44.9998 41.025L30.4498 33.75L35.9998 30.975Z" fill="#96EC3F"/>
</g>
<defs>
<clipPath id="clip0_145_58">
<rect width="90" height="90" fill="white"/>
</clipPath>
</defs>
</svg>
