<?xml version="1.0" encoding="UTF-8"?>
<svg xmlns="http://www.w3.org/2000/svg" xmlns:xlink="http://www.w3.org/1999/xlink" width="47px" height="47px" viewBox="0 0 47 47" version="1.1">
<g id="surface1">
<path style=" stroke:none;fill-rule:nonzero;fill:rgb(58.823529%,92.54902%,24.705882%);fill-opacity:1;" d="M 42.105469 37.207031 C 41.136719 37.207031 40.1875 37.496094 39.382812 38.035156 C 38.578125 38.570312 37.953125 39.335938 37.582031 40.230469 C 37.210938 41.125 37.113281 42.109375 37.300781 43.058594 C 37.492188 44.007812 37.957031 44.882812 38.640625 45.566406 C 39.328125 46.25 40.199219 46.71875 41.148438 46.90625 C 42.097656 47.09375 43.082031 46.996094 43.976562 46.628906 C 44.871094 46.257812 45.636719 45.628906 46.175781 44.824219 C 46.710938 44.019531 47 43.074219 47 42.105469 C 47 41.460938 46.875 40.824219 46.628906 40.230469 C 46.382812 39.636719 46.019531 39.097656 45.566406 38.640625 C 45.113281 38.1875 44.570312 37.828125 43.976562 37.582031 C 43.382812 37.335938 42.746094 37.207031 42.105469 37.207031 Z M 42.105469 45.042969 C 41.523438 45.042969 40.957031 44.871094 40.472656 44.546875 C 39.988281 44.222656 39.613281 43.765625 39.390625 43.226562 C 39.167969 42.691406 39.109375 42.101562 39.222656 41.53125 C 39.335938 40.960938 39.617188 40.4375 40.027344 40.027344 C 40.4375 39.617188 40.960938 39.335938 41.53125 39.222656 C 42.101562 39.109375 42.691406 39.167969 43.226562 39.390625 C 43.765625 39.613281 44.222656 39.988281 44.546875 40.472656 C 44.871094 40.957031 45.042969 41.523438 45.042969 42.105469 C 45.042969 42.882812 44.730469 43.628906 44.179688 44.179688 C 43.628906 44.730469 42.882812 45.042969 42.105469 45.042969 Z M 42.105469 45.042969 "/>
<path style=" stroke:none;fill-rule:nonzero;fill:rgb(58.823529%,92.54902%,24.705882%);fill-opacity:1;" d="M 47 16.644531 C 47 15.359375 46.746094 14.085938 46.253906 12.898438 C 45.761719 11.710938 45.042969 10.632812 44.132812 9.722656 C 43.222656 8.8125 42.144531 8.089844 40.957031 7.597656 C 39.765625 7.109375 38.496094 6.855469 37.207031 6.855469 C 12.484375 6.855469 14.933594 7.011719 15.382812 6.570312 C 15.472656 6.480469 15.546875 6.371094 15.597656 6.25 C 15.644531 6.132812 15.671875 6.003906 15.671875 5.875 C 15.671875 5.746094 15.644531 5.617188 15.597656 5.5 C 15.546875 5.378906 15.472656 5.269531 15.382812 5.179688 C 15.292969 5.089844 15.183594 5.015625 15.0625 4.964844 C 14.945312 4.917969 14.816406 4.890625 14.6875 4.890625 C 14.558594 4.890625 14.429688 4.917969 14.3125 4.964844 C 14.191406 5.015625 14.082031 5.089844 13.992188 5.179688 C 12.210938 6.960938 11.503906 7.363281 11.820312 8.175781 C 11.925781 8.480469 11.976562 8.46875 13.992188 10.488281 C 14.175781 10.671875 14.425781 10.773438 14.6875 10.773438 C 14.949219 10.773438 15.199219 10.671875 15.382812 10.488281 C 15.566406 10.300781 15.671875 10.050781 15.671875 9.792969 C 15.671875 9.53125 15.566406 9.28125 15.382812 9.097656 C 14.941406 8.65625 12.40625 8.8125 37.207031 8.8125 C 39.285156 8.8125 41.277344 9.636719 42.746094 11.105469 C 44.214844 12.574219 45.042969 14.566406 45.042969 16.644531 C 45.042969 18.722656 44.214844 20.714844 42.746094 22.183594 C 41.277344 23.652344 39.285156 24.480469 37.207031 24.480469 C 36.949219 24.480469 36.699219 24.582031 36.515625 24.765625 C 36.332031 24.949219 36.230469 25.199219 36.230469 25.457031 C 36.230469 25.71875 36.332031 25.96875 36.515625 26.152344 C 36.699219 26.335938 36.949219 26.4375 37.207031 26.4375 C 38.496094 26.4375 39.765625 26.183594 40.957031 25.691406 C 42.144531 25.199219 43.222656 24.480469 44.132812 23.570312 C 45.042969 22.660156 45.761719 21.582031 46.253906 20.394531 C 46.746094 19.203125 47 17.933594 47 16.644531 Z M 47 16.644531 "/>
<path style=" stroke:none;fill-rule:nonzero;fill:rgb(58.823529%,92.54902%,24.705882%);fill-opacity:1;" d="M 34.269531 41.125 L 9.300781 41.125 C 7.355469 41.125 5.488281 40.351562 4.109375 38.972656 C 2.730469 37.597656 1.957031 35.730469 1.957031 33.78125 C 1.957031 30.089844 4.738281 26.4375 9.792969 26.4375 C 10.050781 26.4375 10.300781 26.335938 10.484375 26.152344 C 10.667969 25.96875 10.769531 25.71875 10.769531 25.457031 C 10.769531 25.199219 10.667969 24.949219 10.484375 24.765625 C 10.300781 24.582031 10.050781 24.480469 9.792969 24.480469 C 3.582031 24.480469 0 29.082031 0 33.78125 C 0.00390625 36.246094 0.984375 38.613281 2.726562 40.355469 C 4.472656 42.101562 6.835938 43.082031 9.300781 43.082031 L 34.269531 43.082031 C 34.53125 43.082031 34.78125 42.980469 34.964844 42.796875 C 35.148438 42.613281 35.25 42.363281 35.25 42.105469 C 35.25 41.84375 35.148438 41.59375 34.964844 41.410156 C 34.78125 41.226562 34.53125 41.125 34.269531 41.125 Z M 34.269531 41.125 "/>
<path style=" stroke:none;fill-rule:nonzero;fill:rgb(58.823529%,92.54902%,24.705882%);fill-opacity:1;" d="M 4.894531 16.644531 C 10.085938 16.644531 11.5625 11.859375 7.292969 10.222656 C 8.46875 8.566406 9.792969 6.375 9.792969 4.894531 C 9.792969 3.597656 9.277344 2.351562 8.359375 1.433594 C 7.441406 0.515625 6.195312 0 4.894531 0 C 3.597656 0 2.351562 0.515625 1.433594 1.433594 C 0.515625 2.351562 0 3.597656 0 4.894531 C 0 6.375 1.320312 8.566406 2.496094 10.222656 C -1.792969 11.867188 -0.265625 16.644531 4.894531 16.644531 Z M 4.894531 1.957031 C 5.675781 1.957031 6.421875 2.269531 6.972656 2.820312 C 7.523438 3.371094 7.832031 4.117188 7.832031 4.894531 C 7.832031 5.945312 6.296875 8.351562 4.894531 10.183594 C 3.496094 8.351562 1.957031 5.953125 1.957031 4.894531 C 1.957031 4.117188 2.269531 3.371094 2.820312 2.820312 C 3.371094 2.269531 4.117188 1.957031 4.894531 1.957031 Z M 3.742188 11.886719 C 4.09375 12.328125 4.335938 12.730469 4.894531 12.730469 C 5.453125 12.730469 5.679688 12.335938 6.050781 11.886719 C 9.15625 12.601562 7.832031 14.6875 4.894531 14.6875 C 1.957031 14.6875 0.625 12.601562 3.742188 11.886719 Z M 3.742188 11.886719 "/>
<path style=" stroke:none;fill-rule:nonzero;fill:rgb(58.823529%,92.54902%,24.705882%);fill-opacity:1;" d="M 5.875 4.894531 C 5.875 4.636719 5.773438 4.386719 5.589844 4.203125 C 5.40625 4.019531 5.15625 3.917969 4.894531 3.917969 C 4.636719 3.917969 4.386719 4.019531 4.203125 4.203125 C 4.019531 4.386719 3.917969 4.636719 3.917969 4.894531 C 3.917969 5.15625 4.019531 5.40625 4.203125 5.589844 C 4.386719 5.773438 4.636719 5.875 4.894531 5.875 C 5.15625 5.875 5.40625 5.773438 5.589844 5.589844 C 5.773438 5.40625 5.875 5.15625 5.875 4.894531 Z M 5.875 4.894531 "/>
<path style=" stroke:none;fill-rule:nonzero;fill:rgb(58.823529%,92.54902%,24.705882%);fill-opacity:1;" d="M 23.941406 35.140625 C 34.269531 29.960938 34.269531 30.226562 34.269531 29.375 C 34.269531 17.046875 34.496094 17.136719 33.730469 16.753906 C 23.253906 11.515625 23.6875 11.542969 23.058594 11.859375 C 12.847656 16.960938 12.730469 16.761719 12.730469 17.625 C 12.730469 30.089844 12.503906 29.863281 13.265625 30.246094 C 23.746094 35.484375 23.324219 35.457031 23.941406 35.140625 Z M 14.6875 19.210938 L 22.519531 23.128906 L 22.519531 32.683594 L 14.6875 28.769531 Z M 24.480469 32.683594 L 24.480469 23.128906 L 27.417969 21.660156 L 27.417969 23.5 C 27.417969 23.757812 27.519531 24.007812 27.703125 24.191406 C 27.886719 24.375 28.136719 24.480469 28.394531 24.480469 C 28.65625 24.480469 28.90625 24.375 29.089844 24.191406 C 29.273438 24.007812 29.375 23.757812 29.375 23.5 L 29.375 20.679688 L 32.3125 19.210938 L 32.3125 28.769531 Z M 23.5 13.824219 L 31.097656 17.625 L 28.160156 19.074219 L 20.894531 15.109375 Z M 18.800781 16.175781 L 26.066406 20.140625 L 23.5 21.425781 L 15.902344 17.625 Z M 18.800781 16.175781 "/>
</g>
</svg>
