<svg width="19" height="30" viewBox="0 0 19 30" fill="none" xmlns="http://www.w3.org/2000/svg">
<path d="M0 0.0062558C0.831971 0.0062558 1.53883 0.0062558 2.2457 0.0062558C4.6728 0.0062558 7.0999 -0.00625504 9.527 0.0062558C13.7181 0.0375329 17.3776 2.79617 18.5473 6.77462C19.7859 10.9783 17.9968 15.4446 14.1873 17.6653C13.9433 17.8092 13.6994 17.9405 13.4116 18.1032C13.4116 18.9226 13.4241 19.7421 13.4116 20.5678C13.3491 25.0467 10.3277 28.7812 5.95516 29.7696C4.09105 30.1887 2.25821 30.0323 0.475412 29.3317C0.325282 29.2754 0.181408 29.1878 0.0375329 29.119V26.5855C0.300261 26.7106 0.506691 26.8107 0.713119 26.9108C5.42345 29.2816 10.9845 25.96 11.0533 20.6929C11.1034 17.021 11.0721 13.3428 11.0658 9.66463C11.0658 8.45107 10.5091 7.9006 9.29556 7.86932C8.85768 7.85681 8.41354 7.86932 7.87558 7.86932C7.87558 8.22588 7.87558 8.50112 7.87558 8.77635C7.87558 12.4545 7.89434 16.1265 7.85681 19.8047C7.85055 20.5491 7.78174 21.3372 7.52527 22.0191C6.8622 23.7706 5.0231 24.7402 3.25907 24.3961C1.36994 24.0333 0.0250224 22.4882 0.0125116 20.5741C-0.0125101 17.3901 0.0125116 14.2123 0.0125116 11.0283C0.0125116 7.63787 0.0125116 4.24118 0.0125116 0.850738C0.0125116 0.600521 0.0125116 0.344048 0.0125116 0L0 0.0062558ZM2.35204 2.41459C2.33953 2.61477 2.32076 2.77741 2.32076 2.94005C2.32076 8.68878 2.32076 14.4375 2.32076 20.18C2.32076 20.3927 2.32702 20.6054 2.36455 20.8118C2.50842 21.6312 3.20278 22.188 4.02224 22.1442C4.8417 22.0941 5.46724 21.4811 5.52354 20.6429C5.53605 20.4302 5.52979 20.2175 5.52979 20.0048C5.52979 15.4822 5.52979 10.9595 5.52979 6.43683V5.56732C5.84882 5.55481 6.08027 5.52979 6.30546 5.52979C7.2688 5.52979 8.23839 5.52979 9.20173 5.52979C11.7289 5.52979 13.3929 7.19999 13.4054 9.74594C13.4116 11.3974 13.4054 13.0426 13.4054 14.694C13.4054 14.8942 13.4304 15.0943 13.4492 15.3508C13.593 15.2695 13.6806 15.2382 13.7494 15.1819C16.0952 13.4554 17.1399 10.359 16.3454 7.50025C15.5697 4.71033 13.1176 2.56472 10.2276 2.40208C7.69417 2.25821 5.14196 2.33953 2.60226 2.32702C2.5397 2.32702 2.47089 2.36455 2.34578 2.40834L2.35204 2.41459Z" fill="#96EC3F"/>
<path d="M0 0.0062558C0.831971 0.0062558 1.53883 0.0062558 2.2457 0.0062558C4.6728 0.0062558 7.0999 -0.00625504 9.527 0.0062558C13.7181 0.0375329 17.3776 2.79617 18.5473 6.77462C19.7859 10.9783 17.9968 15.4446 14.1873 17.6653C13.9433 17.8092 13.6994 17.9405 13.4116 18.1032C13.4116 18.9226 13.4241 19.7421 13.4116 20.5678C13.3491 25.0467 10.3277 28.7812 5.95516 29.7696C4.09105 30.1887 2.25821 30.0323 0.475412 29.3317C0.325282 29.2754 0.181408 29.1878 0.0375329 29.119V26.5855C0.300261 26.7106 0.506691 26.8107 0.713119 26.9108C5.42345 29.2816 10.9845 25.96 11.0533 20.6929C11.1034 17.021 11.0721 13.3428 11.0658 9.66463C11.0658 8.45107 10.5091 7.9006 9.29556 7.86932C8.85768 7.85681 8.41354 7.86932 7.87558 7.86932C7.87558 8.22588 7.87558 8.50112 7.87558 8.77635C7.87558 12.4545 7.89434 16.1265 7.85681 19.8047C7.85055 20.5491 7.78174 21.3372 7.52527 22.0191C6.8622 23.7706 5.0231 24.7402 3.25907 24.3961C1.36994 24.0333 0.0250224 22.4882 0.0125116 20.5741C-0.0125101 17.3901 0.0125116 14.2123 0.0125116 11.0283C0.0125116 7.63787 0.0125116 4.24118 0.0125116 0.850738C0.0125116 0.600521 0.0125116 0.344048 0.0125116 0L0 0.0062558ZM2.35204 2.41459C2.33953 2.61477 2.32076 2.77741 2.32076 2.94005C2.32076 8.68878 2.32076 14.4375 2.32076 20.18C2.32076 20.3927 2.32702 20.6054 2.36455 20.8118C2.50842 21.6312 3.20278 22.188 4.02224 22.1442C4.8417 22.0941 5.46724 21.4811 5.52354 20.6429C5.53605 20.4302 5.52979 20.2175 5.52979 20.0048C5.52979 15.4822 5.52979 10.9595 5.52979 6.43683V5.56732C5.84882 5.55481 6.08027 5.52979 6.30546 5.52979C7.2688 5.52979 8.23839 5.52979 9.20173 5.52979C11.7289 5.52979 13.3929 7.19999 13.4054 9.74594C13.4116 11.3974 13.4054 13.0426 13.4054 14.694C13.4054 14.8942 13.4304 15.0943 13.4492 15.3508C13.593 15.2695 13.6806 15.2382 13.7494 15.1819C16.0952 13.4554 17.1399 10.359 16.3454 7.50025C15.5697 4.71033 13.1176 2.56472 10.2276 2.40208C7.69417 2.25821 5.14196 2.33953 2.60226 2.32702C2.5397 2.32702 2.47089 2.36455 2.34578 2.40834L2.35204 2.41459Z" fill="#96EC3F"/>
</svg>
